<svg width="32" height="31" viewBox="0 0 32 31" fill="none" xmlns="http://www.w3.org/2000/svg">
<path d="M28.8 0.142867L27.2 0.142867L27.2 21.2556L28.8 21.2556C29.6487 21.2556 30.4626 20.9134 31.0627 20.3043C31.6629 19.6951 32 18.869 32 18.0075L32 3.39099C32 2.52953 31.6629 1.70336 31.0627 1.09422C30.4626 0.48508 29.6487 0.142868 28.8 0.142867ZM3.2 21.2556L14.4 21.2556L12.6048 26.7255C12.4446 27.2136 12.401 27.7335 12.4775 28.2421C12.554 28.7507 12.7484 29.2336 13.0448 29.6511C13.3412 30.0685 13.7311 30.4084 14.1823 30.643C14.6335 30.8775 15.1331 30.9999 15.64 31L16 31L24 22.1684L24 0.142867L6.40001 0.142864L0.140802 14.1033L2.8396e-06 14.7594L2.27168e-06 18.0075C2.12106e-06 18.869 0.337145 19.6951 0.93726 20.3043C1.53738 20.9134 2.35131 21.2556 3.2 21.2556Z" fill="#0E344B"/>
</svg>
