<svg width="32" height="31" viewBox="0 0 32 31" fill="none" xmlns="http://www.w3.org/2000/svg">
<path d="M3.2 31H4.8V9.78947H3.2C2.35131 9.78947 1.53737 10.1333 0.937258 10.7452C0.337142 11.3572 0 12.1872 0 13.0526V27.7368C0 28.6023 0.337142 29.4323 0.937258 30.0442C1.53737 30.6562 2.35131 31 3.2 31ZM28.8 9.78947H17.6L19.3952 4.29432C19.5554 3.80389 19.599 3.28167 19.5225 2.77067C19.446 2.25968 19.2516 1.77453 18.9552 1.35518C18.6588 0.935834 18.2689 0.59429 17.8177 0.358679C17.3665 0.123069 16.8669 0.000133973 16.36 0H16L8 8.87253V31H25.6L31.8592 16.9749L32 16.3158V13.0526C32 12.1872 31.6629 11.3572 31.0627 10.7452C30.4626 10.1333 29.6487 9.78947 28.8 9.78947Z" fill="#0E344B"/>
</svg>
