<svg width="17" height="22" viewBox="0 0 17 22" fill="none" xmlns="http://www.w3.org/2000/svg">
<path d="M7.72727 12.4602H5.11932C5.06808 12.4602 5.01895 12.4806 4.98272 12.5168C4.94649 12.553 4.92614 12.6022 4.92614 12.6534V13.8125C4.92614 13.8637 4.94649 13.9129 4.98272 13.9491C5.01895 13.9853 5.06808 14.0057 5.11932 14.0057H7.72727V16.6136C7.72727 16.6649 7.74763 16.714 7.78385 16.7502C7.82008 16.7865 7.86922 16.8068 7.92045 16.8068H9.07955C9.13078 16.8068 9.17992 16.7865 9.21615 16.7502C9.25238 16.714 9.27273 16.6649 9.27273 16.6136V14.0057H11.8807C11.9319 14.0057 11.9811 13.9853 12.0173 13.9491C12.0535 13.9129 12.0739 13.8637 12.0739 13.8125V12.6534C12.0739 12.6022 12.0535 12.553 12.0173 12.5168C11.9811 12.4806 11.9319 12.4602 11.8807 12.4602H9.27273V9.85227C9.27273 9.80104 9.25238 9.7519 9.21615 9.71567C9.17992 9.67944 9.13078 9.65909 9.07955 9.65909H7.92045C7.86922 9.65909 7.82008 9.67944 7.78385 9.71567C7.74763 9.7519 7.72727 9.80104 7.72727 9.85227V12.4602ZM16.773 5.426C16.9179 5.57088 17 5.76648 17 5.97173V20.8636C17 21.2911 16.6547 21.6364 16.2273 21.6364H0.772727C0.345313 21.6364 0 21.2911 0 20.8636V0.772727C0 0.345313 0.345313 0 0.772727 0H11.0283C11.2335 0 11.4315 0.0821023 11.5764 0.226989L16.773 5.426ZM15.2179 6.3267L10.6733 1.7821V6.3267H15.2179Z" fill="#0E344B"/>
</svg>
