<svg width="43" height="43" viewBox="0 0 43 43" fill="none" xmlns="http://www.w3.org/2000/svg">
<path d="M21.5503 0.50334C22.2215 -0.167699 23.3097 -0.167699 23.9807 0.50334C24.6516 1.17452 24.6516 2.26258 23.9807 2.93378L22.3752 4.53913C21.704 5.21031 20.6158 5.21031 19.9448 4.53913C19.2737 3.86809 19.2737 2.78003 19.9448 2.10885L21.5503 0.503353V0.50334ZM34.0103 36.4458C33.3395 35.7747 33.3395 34.6865 34.0103 34.0155C34.6815 33.3445 35.7696 33.3445 36.4409 34.0155L36.6613 34.236C37.3324 34.9071 37.3324 35.9953 36.6613 36.6663C35.9902 37.3374 34.9021 37.3374 34.2309 36.6663L34.0103 36.4458ZM6.25126 8.68654C5.58007 8.01533 5.58007 6.9273 6.25126 6.25626C6.92215 5.58508 8.01033 5.58508 8.68154 6.25626L8.90194 6.47667C9.57313 7.14785 9.57313 8.23591 8.90194 8.90711C8.23088 9.57815 7.1427 9.57815 6.47181 8.90711L6.25126 8.68656V8.68654ZM6.47851 34.0155C7.14969 33.3482 8.23491 33.3512 8.9021 34.0222C9.56957 34.6934 9.56645 35.7785 8.89556 36.4458L8.67501 36.6663C8.0038 37.3337 6.91859 37.3307 6.25141 36.6596C5.58395 35.9885 5.58707 34.9034 6.25796 34.236L6.47851 34.0155ZM34.2379 6.25626C34.9091 5.58879 35.994 5.59191 36.6615 6.26296C37.329 6.934 37.3258 8.01921 36.6546 8.68656L36.4341 8.90711C35.7632 9.57443 34.678 9.5713 34.0107 8.90026C33.3432 8.22922 33.3462 7.14413 34.0174 6.47667L34.2379 6.25626ZM40.4927 28.8506C41.1636 29.5218 41.1636 30.6098 40.4927 31.281C39.8215 31.9521 38.7334 31.9521 38.0622 31.281L21.4565 14.6751L4.85023 31.2808C4.17931 31.9518 3.09114 31.9518 2.41995 31.2808C1.74877 30.6096 1.74877 29.5215 2.41995 28.8503L20.2412 11.0295C20.9123 10.3584 22.0003 10.3584 22.6715 11.0295L40.4926 28.8506H40.4927ZM32.8409 30.4019C33.5157 31.0767 33.5157 32.171 32.8409 32.8459C32.1658 33.5207 31.0716 33.5207 30.3968 32.8459L28.4436 30.8927C27.769 30.2178 27.769 29.1235 28.4436 28.4488C29.1185 27.774 30.2128 27.774 30.8877 28.4488L32.8409 30.4019ZM12.5158 32.8459C11.8409 33.5207 10.7468 33.5207 10.072 32.8459C9.39708 32.171 9.39708 31.0767 10.072 30.4019L12.0251 28.4488C12.6999 27.774 13.7942 27.774 14.469 28.4488C15.1437 29.1235 15.1437 30.2178 14.469 30.8927L12.5158 32.8459ZM10.0785 12.514C9.40762 11.8429 9.40762 10.7547 10.0785 10.0837C10.7497 9.41267 11.8379 9.41267 12.5091 10.0837L13.751 11.3256C14.4219 11.9968 14.4219 13.0849 13.751 13.7561C13.0798 14.4271 11.9918 14.4271 11.3206 13.7561L10.0785 12.514H10.0785ZM30.4038 10.0837C31.0749 9.41267 32.1632 9.41267 32.834 10.0837C33.5051 10.7547 33.5051 11.8429 32.834 12.514L31.5919 13.7562C30.9209 14.4273 29.8329 14.4273 29.1615 13.7562C28.4905 13.085 28.4905 11.997 29.1615 11.3258L30.4037 10.0837L30.4038 10.0837ZM18.3595 6.71731C19.0305 7.3885 19.0305 8.47656 18.3595 9.14775C17.6882 9.81879 16.6001 9.81879 15.9291 9.14775L11.637 4.85525C10.9658 4.18421 10.9658 3.09601 11.637 2.42497C12.308 1.75393 13.3961 1.75393 14.0673 2.42497L18.3595 6.71733L18.3595 6.71731ZM28.8456 2.42525C29.5168 1.75421 30.6047 1.75421 31.2759 2.42525C31.9471 3.09628 31.9471 4.18449 31.2759 4.85553L26.9835 9.14744C26.3123 9.81862 25.2243 9.81862 24.5534 9.14744C23.882 8.4764 23.882 7.38834 24.5534 6.71715L28.8456 2.42525ZM4.53397 20.5492C5.20113 21.2203 5.19831 22.3053 4.52712 22.9728C3.85608 23.6402 2.77099 23.6372 2.10353 22.966L0.498468 21.3606C-0.168855 20.6896 -0.165721 19.6044 0.505317 18.937C1.17636 18.2697 2.26159 18.2727 2.92876 18.9439L4.53397 20.5492ZM23.9807 39.9893C24.6516 40.6603 24.6516 41.7485 23.9807 42.4196C23.3096 43.0907 22.2215 43.0907 21.5502 42.4196L19.9336 40.8027C19.2622 40.1316 19.2622 39.0435 19.9336 38.3725C20.6045 37.7013 21.6928 37.7013 22.3637 38.3725L23.9807 39.9893H23.9807ZM39.9842 18.9372C40.6554 18.2661 41.7433 18.2661 42.4145 18.9372C43.0857 19.6084 43.0857 20.6964 42.4145 21.3676L40.8089 22.973C40.1377 23.6442 39.0498 23.6442 38.3787 22.973C37.7074 22.3019 37.7074 21.2137 38.3787 20.5427L39.9842 18.9372L39.9842 18.9372ZM9.14242 15.9341C9.8136 16.6053 9.8136 17.6933 9.14242 18.3645C8.4715 19.0356 7.38332 19.0356 6.71228 18.3645L2.41992 14.072C1.74874 13.4008 1.74874 12.3128 2.41992 11.6416C3.09111 10.9705 4.1793 10.9705 4.85021 11.6416L9.14242 15.9341ZM31.2916 38.0514C31.9645 38.7244 31.959 39.8213 31.2793 40.5009C30.5994 41.1807 29.5026 41.1863 28.8295 40.5133L21.4565 33.14L14.0828 40.5134C13.4099 41.1864 12.3131 41.1809 11.6333 40.5012C10.9533 39.8214 10.9478 38.7246 11.6209 38.0516L20.2253 29.4472C20.5636 29.109 21.009 28.9421 21.4547 28.9461C21.9013 28.9412 22.3482 29.1079 22.6874 29.4471L31.2916 38.0514ZM38.0622 11.6422C38.7334 10.9711 39.8214 10.9711 40.4926 11.6422C41.1635 12.3133 41.1635 13.4014 40.4926 14.0724L36.2004 18.3642C35.5292 19.0354 34.4412 19.0354 33.77 18.3642C33.0989 17.6932 33.0989 16.6051 33.77 15.9339L38.0622 11.6422ZM20.0093 20.5507C20.0748 20.4439 20.1535 20.3431 20.2458 20.2508C20.5494 19.9472 20.9451 19.7893 21.3486 19.7759C21.8257 19.7311 22.3125 19.8871 22.6715 20.2461C22.7768 20.3515 22.8648 20.468 22.9352 20.592L27.239 24.8956C27.9075 25.5641 27.9239 26.6318 27.2752 27.2804C26.6269 27.9288 25.5591 27.9126 24.8906 27.2441L21.461 23.8144L18.0267 27.2487C17.3557 27.9199 16.2837 27.9361 15.6326 27.2851C14.9816 26.634 14.9979 25.5622 15.6692 24.891L20.0093 20.5507Z" fill="#32BA39"/>
</svg>
